# xmcd
#
# Track frame offsets:
#  150
#  18166
#  34512
#  51502
#  66976
#  83784
#  97594
#  113422
#  127615
#  141617
#  156990
#  174327
#  187755
#
# Disc length: 2785 seconds
#
# Revision: 1
# Processed by: cddbd v1.5.1PL2 Copyright (c) Steve Scherf et al.
# Submitted via: Collectorz.com_Music_Collector 6.11
#
DISCID=990adf0d
DTITLE=Mitch Woods - Big Easy Boogie  [CD1)
DYEAR=2006
DGENRE=Blues -  Blues New Orleans
TTITLE0=Big Easy Boogie
TTITLE1=Thought I Heard Satchmo Say
TTITLE2=Fallin' For You
TTITLE3=Counting The Days
TTITLE4=Mojo Mambo
TTITLE5=Crescent City Flyer
TTITLE6=Heart And Soul To You
TTITLE7=Short, Sweet And Tender
TTITLE8=Back In My Arms Again
TTITLE9=I Left My Baby At The Mardi Gras Cryin'
TTITLE10=New Gert Town Blues
TTITLE11=I'm Ready
TTITLE12=The Ballad Of Dr. Daddy-O
EXTD=
EXTT0=
EXTT1=
EXTT2=
EXTT3=
EXTT4=
EXTT5=
EXTT6=
EXTT7=
EXTT8=
EXTT9=
EXTT10=
EXTT11=
EXTT12=
PLAYORDER=
